<?xml version="1.0" encoding="UTF-8"?><svg id="Livello_2" xmlns="http://www.w3.org/2000/svg" viewBox="0 0 142.76 55.72"><defs><style>.cls-1{letter-spacing:0em;}.cls-1,.cls-2{fill:#e03701;}.cls-3{font-family:Rubik-Regular, Rubik;font-size:35px;}.cls-2,.cls-4{fill-rule:evenodd;}.cls-5{letter-spacing:.01em;}</style></defs><g id="Livello_1-2"><text class="cls-3" transform="translate(12.44 46.24) scale(1.05 1)"><tspan class="cls-5" x="0" y="0">llustr</tspan><tspan class="cls-1" x="84.8" y="0">us</tspan></text><g><path class="cls-2" d="M3.95,0C3.76,4.05-1.52,6.53,.43,10.74c.56,1.19,1.6,2.11,2.86,2.52,.49,.15,1.02,.18,1.52,.08,.23-.05,.45-.12,.67-.22,2.75-1.25,3.02-4.63,2.16-7.23C6.85,3.5,5.16,1.39,3.95,0h0Z"/><path class="cls-4" d="M5.94,14.95c-.83,.34-2.34,.52-3.4,0l-1.29,6.49c2.33,.52,4.61,.62,6.79,0-.85-3.16-1.51-3.19-2.1-6.48Z"/><path class="cls-4" d="M7.86,23.66c-2.17,.5-4.44,.52-6.63,.05l2.11,19.7c.11,1.23,.35,2.08,1.84,2.31,.46-.01,.89-.2,1.22-.52,.3-.36,.46-.82,.45-1.29l1.01-20.25Z"/></g></g></svg>